PathFileType	4	(X/Y/Z)	/Users/itak/Documents/Research/Walk-IL/dataset/trc/00524_00183.trc
DataRate	CameraRate	NumFrames	NumMarkers	Units	OrigDataRate	OrigDataStartFrame	OrigNumFrames
100.000000	100.000000	4	53	mm	100.000000	69	557
Frame#	Time	RPSI			LPSI			L3			STRN			T10			C7			CLAV			RBAK			LBAK			LSHO			LUPA			LAEL			LAOL			LWTS			LWPS			LFRA			LIFD			LHPS			LHTS			RSHO			RUPA			RAEL			RAOL			RWTS			RWPS			RFRA			RIFD			RHTS			RHPS			RBHD			LFHD			RFHD			LBHD			LHIP			RHIP			RASI			LASI			LKNE			LTHI			LANK			LTIP			LTOE			LMT1			LMT5			LHEE			RKNE			RTHI			RANK			RTIP			RTOE			RMT1			RMT5			RHEE			
		X1	Y1	Z1	X2	Y2	Z2	X3	Y3	Z3	X4	Y4	Z4	X5	Y5	Z5	X6	Y6	Z6	X7	Y7	Z7	X8	Y8	Z8	X9	Y9	Z9	X10	Y10	Z10	X11	Y11	Z11	X12	Y12	Z12	X13	Y13	Z13	X14	Y14	Z14	X15	Y15	Z15	X16	Y16	Z16	X17	Y17	Z17	X18	Y18	Z18	X19	Y19	Z19	X20	Y20	Z20	X21	Y21	Z21	X22	Y22	Z22	X23	Y23	Z23	X24	Y24	Z24	X25	Y25	Z25	X26	Y26	Z26	X27	Y27	Z27	X28	Y28	Z28	X29	Y29	Z29	X30	Y30	Z30	X31	Y31	Z31	X32	Y32	Z32	X33	Y33	Z33	X34	Y34	Z34	X35	Y35	Z35	X36	Y36	Z36	X37	Y37	Z37	X38	Y38	Z38	X39	Y39	Z39	X40	Y40	Z40	X41	Y41	Z41	X42	Y42	Z42	X43	Y43	Z43	X44	Y44	Z44	X45	Y45	Z45	X46	Y46	Z46	X47	Y47	Z47	X48	Y48	Z48	X49	Y49	Z49	X50	Y50	Z50	X51	Y51	Z51	X52	Y52	Z52	X53	Y53	Z53	

70	0.6900000000000001	-1123.89111328125	973.2152099609375	-382.175048828125	-1061.451049804688	970.5941162109375	-489.9028625488281	-1104.401245117188	1032.2509765625	-443.8053588867188	-904.7404174804688	1199.845825195312	-354.9069213867188	-1122.521728515625	1138.458129882812	-446.0242309570312	-1086.032836914062	1369.085693359375	-425.0810241699219	-938.7757568359375	1294.630615234375	-369.0818786621094	-1159.915893554688	1246.115234375	-363.7456359863281	-1076.2734375	1315.289916992188	-515.8523559570312	-961.2568969726562	1361.79345703125	-549.7470092773438	-951.2650146484375	1234.983642578125	-610.9752197265625	-932.778076171875	1025.376342773438	-629.1643676757812	-1028.048706054688	1018.65380859375	-597.1292724609375	-853.07421875	844.9715576171875	-549.6316528320312	-899.739013671875	807.6079711914062	-623.063720703125	-908.9439697265625	954.381591796875	-622.241455078125	-852.411376953125	684.647705078125	-543.087890625	-878.7913818359375	755.5039672851562	-608.1371459960938	-834.7355346679688	765.4564819335938	-561.946533203125	-1089.196044921875	1363.796630859375	-267.4242248535156	-1124.235717773438	1295.234497070312	-219.7424774169922	-1113.933715820312	1026.607421875	-175.2812957763672	-1155.96875	1008.174194335938	-223.3777770996094	-995.0808715820312	830.7503051757812	-192.2211608886719	-1075.553833007812	803.7929077148438	-157.7470703125	-1106.808837890625	972.2492065429688	-167.7982025146484	-987.8561401367188	669.4127197265625	-188.5831146240234	-979.9113159179688	736.8143920898438	-167.9209136962891	-1050.007446289062	731.16845703125	-155.6315765380859	-1091.052612304688	1522.029663085938	-340.6748046875	-919.3331298828125	1594.31787109375	-416.7625122070312	-975.9869995117188	1588.34521484375	-302.1764526367188	-1033.308471679688	1523.866088867188	-489.4728393554688	-907.5306396484375	896.1730346679688	-556.0137329101562	-1092.495361328125	869.4323120117188	-227.1833038330078	-969.486328125	909.407470703125	-235.2640075683594	-860.1414184570312	924.0463256835938	-451.0357971191406	-944.7359619140625	471.296875	-537.4507446289062	-909.9657592773438	627.7703857421875	-541.63427734375	-1028.443359375	48.62575531005859	-554.120361328125	-977.6737670898438	325.8028564453125	-556.9862670898438	-880.1344604492188	38.96393966674805	-408.8822326660156	-963.336181640625	44.7254524230957	-418.3221130371094	-924.8020629882812	46.46293258666992	-511.8386840820312	-1098.4404296875	48.41238403320312	-518.619140625	-1109.728515625	484.2722473144531	-255.6260375976562	-1079.728637695312	741.7581787109375	-209.8103942871094	-1141.592407226562	47.31890106201172	-306.9856262207031	-1110.024291992188	342.4479675292969	-269.314453125	-937.0320434570312	44.38954544067383	-286.1734008789062	-990.135986328125	53.55323791503906	-339.9994201660156	-1038.0234375	45.04079437255859	-255.9073181152344	-1174.604614257812	39.01203536987305	-369.4072875976562	
71	0.7000000000000001	-1123.816284179688	973.233154296875	-382.1363830566406	-1061.391357421875	970.6021118164062	-489.8460388183594	-1104.272094726562	1032.233642578125	-443.7492980957031	-904.6763305664062	1199.827514648438	-354.9032592773438	-1122.453002929688	1138.46728515625	-445.9645385742188	-1085.94580078125	1369.080200195312	-424.9712219238281	-938.716064453125	1294.615966796875	-369.0496215820312	-1159.819091796875	1246.1083984375	-363.6710510253906	-1076.232543945312	1315.299194335938	-515.77099609375	-961.2030639648438	1361.808349609375	-549.6924438476562	-951.2462768554688	1234.985229492188	-610.96044921875	-932.7693481445312	1025.378051757812	-629.15380859375	-1028.030639648438	1018.652709960938	-597.1116943359375	-853.0645141601562	844.9566650390625	-549.6524047851562	-899.75390625	807.5980224609375	-623.083740234375	-908.9227905273438	954.3844604492188	-622.2454833984375	-852.3887329101562	684.65869140625	-543.1195068359375	-878.7984619140625	755.5033569335938	-608.1904907226562	-834.7476806640625	765.4412841796875	-561.9760131835938	-1089.079956054688	1363.776489257812	-267.3214416503906	-1124.123291015625	1295.229614257812	-219.6396484375	-1113.802978515625	1026.580932617188	-175.2080078125	-1155.859619140625	1008.160705566406	-223.2618713378906	-994.9165649414062	830.7402954101562	-192.2334442138672	-1075.383911132812	803.7801513671875	-157.7152252197266	-1106.667358398438	972.2179565429688	-167.7362518310547	-987.72119140625	669.40625	-188.5679931640625	-979.767333984375	736.79541015625	-167.9441223144531	-1049.829956054688	731.1431884765625	-155.6136322021484	-1090.980102539062	1522.0068359375	-340.5691223144531	-919.26708984375	1594.339233398438	-416.7022705078125	-975.9536743164062	1588.329345703125	-302.1151123046875	-1033.309204101562	1523.868408203125	-489.4268493652344	-907.51220703125	896.167724609375	-556.027587890625	-1092.39111328125	869.4091796875	-227.1322937011719	-969.3614501953125	909.3775024414062	-235.2647247314453	-860.0930786132812	924.0436401367188	-451.0422668457031	-944.7191162109375	471.2953186035156	-537.4645385742188	-909.9475708007812	627.7625122070312	-541.65771484375	-1028.4404296875	48.63052368164062	-554.1156005859375	-977.6683349609375	325.801513671875	-556.9876098632812	-880.1322631835938	38.96849060058594	-408.8816528320312	-963.3351440429688	44.72618103027344	-418.3203735351562	-924.8014526367188	46.46614074707031	-511.8388671875	-1098.439208984375	48.41261291503906	-518.6173095703125	-1109.655639648438	484.2720031738281	-255.6101379394531	-1079.63671875	741.755615234375	-209.7462310791016	-1141.588012695312	47.32121276855469	-306.9842224121094	-1109.973754882812	342.4509887695312	-269.302001953125	-937.0289306640625	44.38869857788086	-286.1777038574219	-990.1364135742188	53.55130004882812	-340.0000610351562	-1038.023071289062	45.03998947143555	-255.9072723388672	-1174.606079101562	39.01128005981445	-369.4095458984375	
72	0.71	-1123.741943359375	973.2500610351562	-382.1065368652344	-1061.333251953125	970.611572265625	-489.793212890625	-1104.147094726562	1032.222778320312	-443.6981201171875	-904.6141967773438	1199.811401367188	-354.900390625	-1122.380859375	1138.484252929688	-445.9079895019531	-1085.853515625	1369.0751953125	-424.8636474609375	-938.6585083007812	1294.60009765625	-369.0151062011719	-1159.719604492188	1246.103759765625	-363.5997009277344	-1076.183959960938	1315.307861328125	-515.6791381835938	-961.1467895507812	1361.821044921875	-549.6400146484375	-951.21826171875	1234.988403320312	-610.9441528320312	-932.7549438476562	1025.376708984375	-629.1401977539062	-1028.010498046875	1018.648986816406	-597.0951538085938	-853.0537109375	844.938232421875	-549.6683349609375	-899.7646484375	807.5911254882812	-623.1038818359375	-908.8944091796875	954.3870849609375	-622.2489013671875	-852.373046875	684.6669921875	-543.155517578125	-878.8070068359375	755.5094604492188	-608.258056640625	-834.7627563476562	765.4212646484375	-562.0033569335938	-1088.963989257812	1363.763305664062	-267.22802734375	-1124.004272460938	1295.229370117188	-219.5459442138672	-1113.671752929688	1026.558837890625	-175.1408843994141	-1155.753540039062	1008.15283203125	-223.1484680175781	-994.7530517578125	830.7339477539062	-192.2529144287109	-1075.218139648438	803.7716064453125	-157.6817779541016	-1106.530395507812	972.1912231445312	-167.6775665283203	-987.58837890625	669.3974609375	-188.5554351806641	-979.6300048828125	736.783447265625	-167.9633941650391	-1049.654541015625	731.1173706054688	-155.6021423339844	-1090.902587890625	1521.988159179688	-340.4645385742188	-919.1981201171875	1594.356811523438	-416.6422424316406	-975.9130859375	1588.32080078125	-302.0593872070312	-1033.3076171875	1523.870483398438	-489.3799438476562	-907.4942626953125	896.162353515625	-556.0418090820312	-1092.29345703125	869.38916015625	-227.0868225097656	-969.2408447265625	909.3497314453125	-235.2676849365234	-860.0482177734375	924.039306640625	-451.050537109375	-944.7039184570312	471.296630859375	-537.4805297851562	-909.9342041015625	627.7548217773438	-541.6852416992188	-1028.437133789062	48.63579559326172	-554.1104736328125	-977.66455078125	325.8011474609375	-556.9920043945312	-880.1298828125	38.9757080078125	-408.885009765625	-963.3348388671875	44.72729110717773	-418.3185729980469	-924.8021240234375	46.46798324584961	-511.8395080566406	-1098.435791015625	48.41149520874023	-518.6117553710938	-1109.585571289062	484.2729187011719	-255.5969696044922	-1079.553100585938	741.7542114257812	-209.6847229003906	-1141.583740234375	47.32284927368164	-306.9812927246094	-1109.925415039062	342.4543762207031	-269.2891845703125	-937.0257568359375	44.38875198364258	-286.1816711425781	-990.13623046875	53.54805755615234	-339.99951171875	-1038.022705078125	45.03874969482422	-255.9076690673828	-1174.607177734375	39.01067733764648	-369.4113464355469	
73	0.72	-1123.666870117188	973.266845703125	-382.0863647460938	-1061.276733398438	970.6224975585938	-489.7453308105469	-1104.028442382812	1032.213745117188	-443.6499633789062	-904.5535888671875	1199.796875	-354.897216796875	-1122.304077148438	1138.507568359375	-445.8554992675781	-1085.758178710938	1369.0703125	-424.7598571777344	-938.599365234375	1294.583618164062	-368.9794006347656	-1159.619750976562	1246.100341796875	-363.5303039550781	-1076.12744140625	1315.315063476562	-515.5776977539062	-961.0911254882812	1361.831176757812	-549.5894165039062	-951.1806030273438	1234.99365234375	-610.9254760742188	-932.733642578125	1025.371948242188	-629.1256713867188	-1027.989379882812	1018.643920898438	-597.080078125	-853.0404052734375	844.9175415039062	-549.6804809570312	-899.768798828125	807.5875244140625	-623.1243286132812	-908.856201171875	954.3898315429688	-622.25341796875	-852.361572265625	684.6717529296875	-543.1961669921875	-878.8095703125	755.5181274414062	-608.3355102539062	-834.7758178710938	765.3970336914062	-562.0294799804688	-1088.850463867188	1363.756225585938	-267.1441040039062	-1123.880249023438	1295.232055664062	-219.4612121582031	-1113.539672851562	1026.540893554688	-175.0808410644531	-1155.650512695312	1008.149291992188	-223.0402679443359	-994.59326171875	830.7286987304688	-192.2800598144531	-1075.0615234375	803.7662963867188	-157.6457824707031	-1106.397705078125	972.1690063476562	-167.6221313476562	-987.458251953125	669.3844604492188	-188.5482788085938	-979.5004272460938	736.77783203125	-167.9763336181641	-1049.4853515625	731.0911865234375	-155.5951843261719	-1090.820190429688	1521.972778320312	-340.3629150390625	-919.126953125	1594.369140625	-416.5829772949219	-975.86572265625	1588.318725585938	-302.0087280273438	-1033.3017578125	1523.871459960938	-489.3322143554688	-907.4755859375	896.1561889648438	-556.0570678710938	-1092.202880859375	869.372314453125	-227.0487518310547	-969.1261596679688	909.324462890625	-235.2716369628906	-860.0056762695312	924.0332641601562	-451.0601806640625	-944.6891479492188	471.3002624511719	-537.498046875	-909.9252319335938	627.7464599609375	-541.7158813476562	-1028.433227539062	48.64154434204102	-554.104248046875	-977.66162109375	325.8015747070312	-556.9993896484375	-880.1272583007812	38.98388290405273	-408.8909606933594	-963.3348388671875	44.728515625	-418.3170471191406	-924.8031005859375	46.46906661987305	-511.84033203125	-1098.431030273438	48.4093017578125	-518.6036376953125	-1109.519775390625	484.2754821777344	-255.5878601074219	-1079.471435546875	741.7511596679688	-209.6364898681641	-1141.580322265625	47.322998046875	-306.9769897460938	-1109.880126953125	342.4575805664062	-269.2771301269531	-937.022705078125	44.39013671875	-286.1849365234375	-990.1360473632812	53.54331970214844	-339.9979553222656	-1038.022094726562	45.03733444213867	-255.9088439941406	-1174.608032226562	39.01051712036133	-369.4124450683594	
